{"title":"Time After Time (1979) 1080p AC3 (5.1) HDTV no logos","uid":8621667,"size":3900941277,"categoryP":"video","categoryS":"hd___movies","magnet":"?xt=urn:btih:cdd05954a179d0968bfb1df2c769fce441af051d&amp;dn=Time+After+Time+%281979%29+1080p+AC3+%285.1%29+HDTV+no+logos&amp;tr=udp%3A%2F%2Ftracker.openbittorrent.com%3A80&amp;tr=udp%3A%2F%2Fopen.demonii.com%3A1337&amp;tr=udp%3A%2F%2Ftracker.coppersurfer.tk%3A6969&amp;tr=udp%3A%2F%2Fexodus.desync.com%3A6969","seeders":1,"leechers":0,"uploader":"nabsltd","files":2,"time":1372387441,"description":"General\nUnique ID                        : 191606982894422952024477761597529186624 (0x9026299F906E45E8AE6025E6EE6CE140)\nFormat                           : Matroska\nFormat version                   : Version 4 / Version 2\nFile size                        : 3.58 GiB\nDuration                         : 1h 51mn\nOverall bit rate mode            : Variable\nOverall bit rate                 : 4 577 Kbps\nEncoded date                     : UTC 2013-06-27 19:15:11\nWriting application              : mkvmerge v6.1.0 ('Old Devil') built on Mar  2 2013 14:32:37\nWriting library                  : libebml v1.3.0 + libmatroska v1.4.0\n\nVideo\nID                               : 1\nFormat                           : AVC\nFormat/Info                      : Advanced Video Codec\nFormat profile                   : &lt;a class=&quot;__cf_email__&quot; href=&quot;/cdn-cgi/l/email-protection&quot; data-cfemail=&quot;a0e8c9c7c8e0ec948e91&quot;&gt;[email&amp;#160;protected]&lt;/a&gt;&lt;script cf-hash='f9e31' type=&quot;text/javascript&quot;&gt;\n/* &lt;![CDATA[ */!function(){try{var t=&quot;currentScript&quot;in document?document.currentScript:function(){for(var t=document.getElementsByTagName(&quot;script&quot;),e=t.length;e--;)if(t[e].getAttribute(&quot;cf-hash&quot;))return t[e]}();if(t&amp;&amp;t.previousSibling){var e,r,n,i,c=t.previousSibling,a=c.getAttribute(&quot;data-cfemail&quot;);if(a){for(e=&quot;&quot;,r=parseInt(a.substr(0,2),16),n=2;a.length-n;n+=2)i=parseInt(a.substr(n,2),16)^r,e+=String.fromCharCode(i);e=document.createTextNode(e),c.parentNode.replaceChild(e,c)}}}catch(u){}}();/* ]]&gt; */&lt;/script&gt;\nFormat settings, CABAC           : Yes\nFormat settings, ReFrames        : 4 frames\nCodec ID                         : V_MPEG4/ISO/AVC\nDuration                         : 1h 51mn\nBit rate mode                    : Variable\nBit rate                         : 4 102 Kbps\nMaximum bit rate                 : 26.4 Mbps\nWidth                            : 1 912 pixels\nHeight                           : 792 pixels\nDisplay aspect ratio             : 2.40:1\nFrame rate                       : 23.976 fps\nColor space                      : YUV\nChroma subsampling               : 4:2:0\nBit depth                        : 8 bits\nScan type                        : Progressive\nBits/(Pixel*Frame)               : 0.113\nStream size                      : 3.21 GiB (90%)\nWriting library                  : x264 core 129 r2245 bc13772\nLanguage                         : English\nDefault                          : Yes\nForced                           : No\n\nAudio\nID                               : 2\nFormat                           : AC-3\nFormat/Info                      : Audio Coding 3\nMode extension                   : CM (complete main)\nCodec ID                         : A_AC3\nDuration                         : 1h 51mn\nBit rate mode                    : Constant\nBit rate                         : 384 Kbps\nChannel(s)                       : 6 channels\nChannel positions                : Front: L C R, Side: L R, LFE\nSampling rate                    : 48.0 KHz\nBit depth                        : 16 bits\nCompression mode                 : Lossy\nStream size                      : 308 MiB (8%)\nLanguage                         : English\nDefault                          : Yes\nForced                           : No\n\nMenu\n00:00:00.000                     : en:Credits\n00:01:27.087                     : en:Friends Call Me Jack\n00:06:05.448                     : en:The Doctor Is Late\n00:07:58.186                     : en:The Time Machine\n00:10:56.239                     : en:How Each Other Thinks\n00:12:31.584                     : en:A Shocking Discovery\n00:14:50.370                     : en:Back From the Future\n00:17:46.816                     : en:Bound for Utopia\n00:20:20.136                     : en:Passage of Time\n00:23:06.260                     : en:Before and After His Time\n00:26:09.234                     : en:Making Notes, Causing a Stir\n00:28:14.318                     : en:Fast Food; Gentleman's Word\n00:33:25.962                     : en:Herbert Meets Amy\n00:37:10.353                     : en:&quot;I'm Home&quot;\n00:43:38.199                     : en:The Chase\n00:45:59.465                     : en:John Doe Is Dead\n00:47:39.148                     : en:A Nervous Lunch\n00:53:16.819                     : en:Afternoon With Amy\n00:56:38.478                     : en:Evening Plans\n00:59:50.587                     : en:Romance; Stalking Predator\n01:03:09.244                     : en:Death and Disbelief\n01:06:46.002                     : en:Stevenson's Threat\n01:11:36.959                     : en:Sherlock Holmes\n01:14:11.989                     : en:Unbelievable Truth\n01:17:24.306                     : en:Later Than You Think\n01:19:09.787                     : en:Amy's Future Shock\n01:23:11.945                     : en:Still Killing\n01:27:28.535                     : en:Too Late\n01:31:16.368                     : en:Armed and Defenseless\n01:34:05.120                     : en:Time Is Running Out\n01:38:39.914                     : en:Fifth Victim\n01:39:49.525                     : en:A Hostage\n01:42:19.842                     : en:Race to the Museum\n01:45:12.181                     : en:Checkmate\n01:47:41.936                     : en:Fellow Travelers\n01:50:01.909                     : en:Coda and End Credits\n","torrent":{"xt":"urn:btih:cdd05954a179d0968bfb1df2c769fce441af051d","amp;dn":"Time+After+Time+%281979%29+1080p+AC3+%285.1%29+HDTV+no+logos","amp;tr":["udp%3A%2F%2Ftracker.openbittorrent.com%3A80","udp%3A%2F%2Fopen.demonii.com%3A1337","udp%3A%2F%2Ftracker.coppersurfer.tk%3A6969","udp%3A%2F%2Fexodus.desync.com%3A6969"],"infoHash":"cdd05954a179d0968bfb1df2c769fce441af051d","infoHashBuffer":{"type":"Buffer","data":[205,208,89,84,161,121,208,150,139,251,29,242,199,105,252,228,65,175,5,29]},"announce":[],"urlList":[]}}